<svg width="32" height="32" viewBox="0 0 32 32" fill="none" xmlns="http://www.w3.org/2000/svg">
  <!-- Background circle -->
  <circle cx="16" cy="16" r="16" fill="#3B82F6"/>
  
  <!-- AI Brain/Neural Network -->
  <g fill="white">
    <!-- Main brain shape -->
    <path d="M8 12C8 8.68629 10.6863 6 14 6H18C21.3137 6 24 8.68629 24 12C24 15.3137 21.3137 18 18 18H14C10.6863 18 8 15.3137 8 12Z" opacity="0.9"/>
    
    <!-- Neural connections -->
    <circle cx="12" cy="10" r="1.5"/>
    <circle cx="16" cy="9" r="1.5"/>
    <circle cx="20" cy="10" r="1.5"/>
    <circle cx="11" cy="13" r="1.5"/>
    <circle cx="15" cy="12" r="1.5"/>
    <circle cx="19" cy="13" r="1.5"/>
    <circle cx="13" cy="15" r="1.5"/>
    <circle cx="17" cy="14" r="1.5"/>
    
    <!-- Connection lines -->
    <path d="M12 10L16 9M16 9L20 10M11 13L15 12M15 12L19 13M13 15L17 14" stroke="white" stroke-width="0.8" fill="none" opacity="0.7"/>
    
    <!-- Revenue chart bars -->
    <rect x="6" y="22" width="2" height="6" fill="white" opacity="0.8"/>
    <rect x="9" y="20" width="2" height="8" fill="white" opacity="0.8"/>
    <rect x="12" y="18" width="2" height="10" fill="white" opacity="0.8"/>
    <rect x="15" y="19" width="2" height="9" fill="white" opacity="0.8"/>
    <rect x="18" y="21" width="2" height="7" fill="white" opacity="0.8"/>
    <rect x="21" y="23" width="2" height="5" fill="white" opacity="0.8"/>
  </g>
  
  <!-- M for Maximor -->
  <text x="16" y="28" font-family="Arial, sans-serif" font-size="8" font-weight="bold" text-anchor="middle" fill="white">M</text>
</svg>
